<?xml version="1.0" encoding="utf-8"?>
<!-- Generator: Adobe Illustrator 18.1.1, SVG Export Plug-In . SVG Version: 6.00 Build 0)  -->
<!DOCTYPE svg PUBLIC "-//W3C//DTD SVG 1.1//EN" "http://www.w3.org/Graphics/SVG/1.1/DTD/svg11.dtd">
<svg version="1.1" id="Calque_1" xmlns="http://www.w3.org/2000/svg" xmlns:xlink="http://www.w3.org/1999/xlink" x="0px" y="0px"
	 viewBox="0 0 300 300" enable-background="new 0 0 300 300" xml:space="preserve">
<g>
	<g>
		<path d="M150,130.4c-10.8,0-19.6,8.8-19.6,19.6c0,10.8,8.8,19.6,19.6,19.6c10.8,0,19.6-8.8,19.6-19.6
			C169.6,139.2,160.8,130.4,150,130.4z"/>
		<path d="M252,140.7c-4.4-49.1-43.6-88.3-92.7-92.7V22.3h-18.6V48C91.6,52.4,52.4,91.6,48,140.7H22.3v18.6H48
			c4.4,49.1,43.6,88.3,92.7,92.7v25.6h18.6V252c49.1-4.4,88.3-43.6,92.7-92.7h25.6v-18.6H252z M233.3,159.3
			c-4.3,38.8-35.2,69.7-74,74v-33.5h-18.6v33.5c-38.8-4.3-69.7-35.2-74-74h33.5v-18.6H66.7c4.3-38.8,35.2-69.7,74-74v33.5h18.6V66.7
			c38.8,4.3,69.7,35.2,74,74h-33.5v18.6L233.3,159.3z"/>
	</g>
</g>
</svg>
