<?xml version="1.0" encoding="utf-8"?>
<!-- Generator: Adobe Illustrator 18.1.1, SVG Export Plug-In . SVG Version: 6.00 Build 0)  -->
<!DOCTYPE svg PUBLIC "-//W3C//DTD SVG 1.1//EN" "http://www.w3.org/Graphics/SVG/1.1/DTD/svg11.dtd">
<svg version="1.1" id="Calque_1" xmlns="http://www.w3.org/2000/svg" xmlns:xlink="http://www.w3.org/1999/xlink" x="0px" y="0px"
	 viewBox="0 0 1024 1024" enable-background="new 0 0 1024 1024" xml:space="preserve">
<path d="M931.5,396.3l-71.2-120.8c-0.3-0.5-0.8-0.9-1.4-1c-0.6-0.1-1.2,0.1-1.6,0.5l-11.5,10.1l-28.3-10.4c-0.4-0.1-0.8-0.2-1.2,0
	l-37.9,10.6l-34.9-19.7c-0.1,0-0.2-0.1-0.3-0.1l-35.6-13.9c-0.2-0.1-0.5-0.1-0.7-0.1h-49.6l12.8-30.5c0.1-0.3,0.2-0.6,0.2-0.9
	l-1.5-30.2c0-0.4-0.2-0.8-0.4-1.1l-12.4-17c0,0,0,0,0,0l-57.3-80.5c-0.4-0.5-1-0.8-1.6-0.8h-31c-0.3,0-0.7,0.1-1,0.3l-20.2,11.6
	l-42.3-49.8c-0.5-0.6-1.4-0.9-2.2-0.6l-85.2,32.5c-0.2,0.1-0.4,0.2-0.5,0.3l-72.8,57.3c0,0-0.1,0-0.1,0.1c0,0,0,0,0,0L231.5,244.1
	c-0.7,0.7-0.8,1.8-0.3,2.6l42.1,63.2l-75.5,40.8c-1,0.5-1.3,1.7-0.8,2.7l9.8,19.5l-42.6,11.7c-0.6,0.2-1.1,0.6-1.3,1.1
	s-0.2,1.2,0.1,1.7l23.5,44l-62.3,10.4c-0.7,0.1-1.2,0.5-1.5,1.1c-0.3,0.6-0.2,1.3,0.1,1.9l13.3,22.2l-19.6,34.6
	c-0.4,0.6-0.3,1.4,0.1,2.1c0.4,0.6,1,0.9,1.7,0.9c0.1,0,0.1,0,0.2,0l99.3-7.6l107.8,224.9c0.3,0.6,0.8,1,1.5,1.1c0.1,0,0.2,0,0.3,0
	c0.5,0,1.1-0.2,1.4-0.6l47.8-49.3l145.6-69l43.5,39l10.7,41.2c0.2,0.8,0.8,1.3,1.6,1.5c0.1,0,0.2,0,0.3,0c0.7,0,1.3-0.3,1.7-0.9
	l112.2-167.6l55.9,15.1c0.8,0.2,1.7-0.1,2.1-0.8l7.7-10.8c0.5-0.6,0.5-1.5,0.1-2.2l-16.8-27.9h66.2c0.3,0,0.7-0.1,1-0.3L861,461
	c0.1-0.1,0.2-0.1,0.3-0.2l58.8-46.5c0.2-0.1,0.3-0.3,0.4-0.4l10.8-15.5C931.8,397.8,931.9,397,931.5,396.3z M710.6,518.1l-10.6-2.9
	l28.1-28.1l8.3,3.1l0.8,1.3L710.6,518.1z M742.2,500l5.1,8.4l-15.5,15.5l-10.6-2.9L742.2,500z M501.7,578.9l128.5-128.5l9.8,3.7
	L508.5,585.5L501.7,578.9z M515.4,592.1l134.4-134.4l9.8,3.7L522.2,598.7L515.4,592.1z M610.6,443l9.8,3.7L494.8,572.3l-6.9-6.6
	L610.6,443z M460.5,539.2l107.6-107.6l9.4,4.1L467.3,545.8L460.5,539.2z M453.6,532.6l-6.9-6.6l102.5-102.5l9.4,4.1L453.6,532.6z
	 M439.9,519.4l-1.1-1.1l-4.9-6.4l96.5-96.5l9.4,4.1L439.9,519.4z M428,504.3l-5.8-7.6l89.4-89.4l9.4,4.1L428,504.3z M434.7,379
	l0.9-3.4l7.7-7.7l7.3,6.2l-15.9,15.9V379z M457.8,380.2l7.3,6.2L394.5,457l-5-8.5L457.8,380.2z M416.4,489l-5.8-7.6l82.2-82.2
	l9.4,4.1L416.4,489z M404.7,473.8l-1.3-1.7l-3.9-6.6l74.4-74.4l9.4,4.1L404.7,473.8z M384.6,440l-5-8.5l7-7l29.3-15.9L384.6,440z
	 M669.4,465.1l9.8,3.7L536.4,611.5l-7.1-6.4L669.4,465.1z M688.9,472.4l9.8,3.7L550.6,624.2l-7.1-6.4L688.9,472.4z M708.5,479.8
	l9.8,3.7L564.8,637l-7.1-6.4L708.5,479.8z M665.7,549.5l-27.3,40.8L573,655.7l-2.8-10.7L665.7,549.5z M481.1,559l-6.9-6.6
	l112.7-112.7l2.9,1.2c0.2,0.1,0.5,0.2,0.8,0.2h8.4L481.1,559z M416.6,87.8l83.6-31.9l42.4,50c0.6,0.7,1.7,0.9,2.5,0.4l21.2-12.1
	h29.4l55.6,78.2l-186,161.4c-0.5,0.4-0.7,1-0.7,1.6l1.4,46.6l-12.4-10.5L439,358.9l-32.2-73.8L345.3,144L416.6,87.8z M140.2,468
	c0.4-0.6,0.3-1.4,0-2l-12.4-20.7l62.1-10.4c0.6-0.1,1.2-0.5,1.5-1.1c0.3-0.6,0.3-1.3,0-1.8l-23.6-44.3l42.5-11.7
	c0.6-0.2,1.1-0.6,1.3-1.1c0.2-0.5,0.2-1.2,0-1.7l-10-19.9l75.7-40.9c0.5-0.3,0.9-0.7,1-1.3s0-1.1-0.3-1.6l-42.4-63.6l106.6-99.1
	l93.1,213.6l-4.5,17.9c0,0.2-0.1,0.3-0.1,0.5v17.4l-56.2,30.4c-0.5,0.3-0.8,0.7-1,1.2c0,0.1-0.1,0.3-0.1,0.4c0,0.4,0.1,0.8,0.3,1.2
	l25.3,43.2l-22.6,12.7l-157.5,7.7c0,0,0,0,0,0l0,0l-96.9,7.5L140.2,468z M374.5,669.6c-0.2,0.1-0.4,0.2-0.6,0.4l-46,47.5
	L222.1,496.7l154.9-7.6c0.3,0,0.6-0.1,0.9-0.3l23.3-13.1l34.6,45.1c0.1,0.1,0.1,0.2,0.2,0.2l83.1,80.1L374.5,669.6z M575.8,666.4
	l35.3-35.3l-27.3,40.8l-5.2,5.2L575.8,666.4z M747.7,528.2l-5.3-1.4l9.9-9.9l1.6,2.7L747.7,528.2z M917.4,411.4l-58.5,46.2
	l-52.1,29.1h-68.8l-131.3-49.4c-0.2-0.1-0.5-0.1-0.7-0.1H591l-120.8-52l-1.5-48.9l185-160.5l10.8,14.8l1.5,29.1l-13.8,32.9
	c-0.3,0.6-0.2,1.3,0.2,1.9s1,0.9,1.7,0.9h52.3l35.1,13.7l35.5,20.1c0.5,0.3,1,0.3,1.5,0.2l38.1-10.7l28.8,10.6
	c0.7,0.3,1.5,0.1,2-0.4l10.6-9.3l69.4,117.6L917.4,411.4z"/>
</svg>
