<?xml version="1.0" encoding="utf-8"?>
<!-- Generator: Adobe Illustrator 18.1.1, SVG Export Plug-In . SVG Version: 6.00 Build 0)  -->
<!DOCTYPE svg PUBLIC "-//W3C//DTD SVG 1.1//EN" "http://www.w3.org/Graphics/SVG/1.1/DTD/svg11.dtd">
<svg version="1.1" id="Calque_1" xmlns="http://www.w3.org/2000/svg" xmlns:xlink="http://www.w3.org/1999/xlink" x="0px" y="0px"
	 viewBox="0 0 595.3 841.9" enable-background="new 0 0 595.3 841.9" xml:space="preserve">
<g>
	<path d="M482.6,590.6l-223.2-7.7l9.5-272.6l223.2,7.7L482.6,590.6z M256.2,301.9l-29.4,2.6c-3.6,0.4-6.3,3.6-6,7.1
		c0.4,3.4,3.2,6.2,6.5,6.2c0.2,0,0.4,0,0.6,0l27.4-2.4l-1,28.8l-24,2.2c-3.6,0.4-6.3,3.6-6,7.1c0.2,3.4,3.2,6,6.5,6
		c0.2,0,0.4,0,0.6,0l22.4-2l-1,30.2l-18.7,1.6c-3.6,0.4-6.3,3.6-6,7.1c0.2,3.4,3.2,6.2,6.5,6.2c0.2,0,0.4,0,0.6,0l17.1-1.6l-1,30.6
		l-13.3,1.2c-3.6,0.4-6.3,3.6-6,7.1c0.2,3.4,3.2,6,6.5,6c0.2,0,0.4,0,0.6,0l11.7-1l-1.2,36.1l-7.3,0.6c-3.6,0.4-6.3,3.6-6,7.1
		c0.4,3.4,3.2,6,6.5,6c0.2,0,0.4,0,0.6,0l5.8-0.4l-1.6,46.4l-29,2.6l-23.8-271.8l222.4-19.4l4.4,50.6h2l-28-1c1.4-1.4,2.2-3.2,2-5.2
		c-0.4-3.6-3.6-6.3-7.1-6l-90.3,7.9l-37.7-1.4C259.3,296.3,257,298.7,256.2,301.9z M246.6,570.6l-95.2,16.9L104,318.6l80.6-14.1
		l3.2,35.9l-48.8,8.5c-3.6,0.6-6,4.2-5.4,7.7c0.6,3.2,3.4,5.6,6.5,5.6c0.4,0,0.8,0,1.2-0.2l47.6-8.3l2.6,28.6l-45.2,7.9
		c-3.6,0.6-6,4.2-5.4,7.7c0.6,3.2,3.4,5.6,6.5,5.6c0.4,0,0.8,0,1.2-0.2l44.1-7.7l2.6,30l-41.5,7.3c-3.6,0.6-6,4.2-5.4,7.7
		c0.6,3.2,3.4,5.6,6.5,5.6c0.4,0,0.8,0,1.2-0.2l40.3-7.1l2.6,30.4l-37.7,6.7c-3.6,0.6-6,4.2-5.4,7.7c0.6,3.2,3.4,5.6,6.5,5.6
		c0.4,0,0.8,0,1.2-0.2l36.7-6.5l3.2,35.7l-33.5,6c-3.6,0.6-6,4.2-5.4,7.7c0.6,3.2,3.4,5.6,6.5,5.6c0.4,0,0.8,0,1.2-0.2l32.3-5.8
		l1.8,19.4c0.2,1.8,1,3.4,2.4,4.6c1.2,1,2.8,1.6,4.2,1.6c0.2,0,0.4,0,0.6,0l33.9-3L246.6,570.6z M503.8,307c-1.2-1.4-2.8-2-4.6-2.2
		l-64.1-2.2l-5.2-58.7c-0.2-1.8-1-3.4-2.4-4.6c-1.4-1.2-3.2-1.8-4.8-1.6l-235.7,20.6c-3.6,0.4-6.3,3.6-6,7.1l2.2,25.6l-88.1,15.7
		c-3.6,0.6-6,4.2-5.4,7.7l49.6,281.8c0.6,3.2,3.4,5.6,6.5,5.6c0.4,0,0.8,0,1.2-0.2l99-17.5L246,589c0,1.8,0.6,3.4,1.8,4.8
		c1.2,1.2,2.8,2,4.6,2.2l236.3,8.3h0.2c3.6,0,6.5-2.8,6.5-6.3l9.9-285.9C505.6,310,505,308.2,503.8,307z"/>
	<path d="M296.3,360.2l164.3,5.8h0.2c3.6,0,6.5-2.8,6.5-6.3c0.2-3.6-2.8-6.7-6.3-6.9l-164.3-5.8c-4-0.2-6.7,2.8-6.9,6.3
		C289.7,357.1,292.7,360,296.3,360.2z"/>
	<path d="M294.7,401.9l164.3,5.8h0.2c3.6,0,6.5-2.8,6.5-6.3c0.2-3.6-2.8-6.7-6.3-6.9l-164.3-5.8c-3.6-0.2-6.7,2.8-6.9,6.3
		C288.1,398.7,291.1,401.9,294.7,401.9z"/>
	<path d="M293.3,445.2l164.3,5.8h0.2c3.6,0,6.5-2.8,6.5-6.3c0.2-3.6-2.8-6.7-6.3-6.9l-164.3-5.8c-3.6-0.2-6.7,2.8-6.9,6.3
		C286.7,442,289.7,445,293.3,445.2z"/>
	<path d="M291.7,488.6l164.3,5.8h0.2c3.6,0,6.5-2.8,6.5-6.3c0.2-3.6-2.8-6.7-6.3-6.9l-164.3-5.8c-3.6-0.2-6.7,2.8-6.9,6.3
		C285.1,485.4,288.1,488.6,291.7,488.6z"/>
	<path d="M290.1,537.6l164.3,5.8h0.2c3.6,0,6.5-2.8,6.5-6.3c0.2-3.6-2.8-6.7-6.3-6.9l-164.3-5.8c-3.6-0.2-6.7,2.8-6.9,6.3
		C283.6,534.4,286.3,537.4,290.1,537.6z"/>
</g>
</svg>
