<?xml version="1.0" encoding="utf-8"?>
<!-- Generator: Adobe Illustrator 18.1.1, SVG Export Plug-In . SVG Version: 6.00 Build 0)  -->
<!DOCTYPE svg PUBLIC "-//W3C//DTD SVG 1.1//EN" "http://www.w3.org/Graphics/SVG/1.1/DTD/svg11.dtd">
<svg version="1.1" id="Calque_1" xmlns="http://www.w3.org/2000/svg" xmlns:xlink="http://www.w3.org/1999/xlink" x="0px" y="0px"
	 viewBox="0 0 300 300" enable-background="new 0 0 300 300" xml:space="preserve">
<g>
	<g>
		<path d="M190,52.7c9.4,0,17,7.6,17,17s-7.6,17-17,17s-17-7.6-17-17S180.6,52.7,190,52.7 M190,47.7c-12.2,0-22,9.8-22,22
			c0,12.2,9.8,22,22,22s22-9.8,22-22C212,57.5,202.2,47.7,190,47.7L190,47.7z"/>
	</g>
	<g>
		<path d="M145,123.9c7.6,0,13.8,6.2,13.8,13.7s-6.2,13.8-13.8,13.8s-13.8-6.2-13.8-13.8S137.4,123.9,145,123.9 M145,120.9
			c-9.3,0-16.8,7.5-16.8,16.7c0,9.3,7.5,16.8,16.8,16.8s16.8-7.5,16.8-16.8C161.8,128.4,154.3,120.9,145,120.9L145,120.9z"/>
	</g>
	<g>
		<path d="M150.1,188c4.8,0,8.7,3.9,8.7,8.7s-3.9,8.7-8.7,8.7s-8.7-3.9-8.7-8.7S145.3,188,150.1,188 M150.1,186
			c-5.9,0-10.7,4.8-10.7,10.7s4.8,10.7,10.7,10.7c5.9,0,10.7-4.8,10.7-10.7S156,186,150.1,186L150.1,186z"/>
	</g>
	<g>
		<path d="M225.1,188c4.8,0,8.7,3.9,8.7,8.7s-3.9,8.7-8.7,8.7s-8.7-3.9-8.7-8.7S220.3,188,225.1,188 M225.1,186
			c-5.9,0-10.7,4.8-10.7,10.7s4.8,10.7,10.7,10.7c5.9,0,10.7-4.8,10.7-10.7S231,186,225.1,186L225.1,186z"/>
	</g>
	<g>
		<path d="M265.1,188c4.8,0,8.7,3.9,8.7,8.7s-3.9,8.7-8.7,8.7s-8.7-3.9-8.7-8.7S260.3,188,265.1,188 M265.1,186
			c-5.9,0-10.7,4.8-10.7,10.7s4.8,10.7,10.7,10.7c5.9,0,10.7-4.8,10.7-10.7S271,186,265.1,186L265.1,186z"/>
	</g>
	<g>
		<path d="M41,79.6c8.1,0,14.8,6.6,14.8,14.8s-6.6,14.8-14.8,14.8s-14.8-6.6-14.8-14.8S32.9,79.6,41,79.6 M41,77.6
			c-9.3,0-16.8,7.5-16.8,16.8s7.5,16.8,16.8,16.8s16.8-7.5,16.8-16.8S50.3,77.6,41,77.6L41,77.6z"/>
	</g>
	<g>
		<path d="M41,144.6c8.1,0,14.8,6.6,14.8,14.8s-6.6,14.8-14.8,14.8s-14.8-6.6-14.8-14.8S32.9,144.6,41,144.6 M41,142.6
			c-9.3,0-16.8,7.5-16.8,16.8c0,9.3,7.5,16.8,16.8,16.8s16.8-7.5,16.8-16.8C57.8,150.1,50.3,142.6,41,142.6L41,142.6z"/>
	</g>
	<g>
		<path d="M41,209.6c8.1,0,14.8,6.6,14.8,14.8s-6.6,14.8-14.8,14.8s-14.8-6.6-14.8-14.8S32.9,209.6,41,209.6 M41,207.6
			c-9.3,0-16.8,7.5-16.8,16.8c0,9.3,7.5,16.8,16.8,16.8s16.8-7.5,16.8-16.8C57.8,215.1,50.3,207.6,41,207.6L41,207.6z"/>
	</g>
	<g>
		<path d="M235,123.9c7.6,0,13.8,6.2,13.8,13.7s-6.2,13.8-13.8,13.8s-13.8-6.2-13.8-13.8S227.4,123.9,235,123.9 M235,120.9
			c-9.3,0-16.8,7.5-16.8,16.7c0,9.3,7.5,16.8,16.8,16.8s16.8-7.5,16.8-16.8C251.8,128.4,244.3,120.9,235,120.9L235,120.9z"/>
	</g>
	<circle cx="189.7" cy="97.7" r="1.6"/>
	<circle cx="189.7" cy="102.7" r="1.6"/>
	<circle cx="189.7" cy="107.7" r="1.6"/>
	<circle cx="189.7" cy="112.7" r="1.6"/>
	<circle cx="189.7" cy="117.7" r="1.6"/>
	<circle cx="189.7" cy="122.7" r="1.6"/>
	<circle cx="189.7" cy="127.7" r="1.6"/>
	<circle cx="189.7" cy="132.7" r="1.6"/>
	<circle cx="189.7" cy="137.7" r="1.6"/>
	<circle cx="194.7" cy="137.7" r="1.6"/>
	<circle cx="199.7" cy="137.7" r="1.6"/>
	<circle cx="204.7" cy="137.7" r="1.6"/>
	<circle cx="209.7" cy="137.7" r="1.6"/>
	<circle cx="214.7" cy="137.7" r="1.6"/>
	<circle cx="162" cy="69.4" r="1.6"/>
	<circle cx="157" cy="69.4" r="1.6"/>
	<circle cx="152" cy="69.4" r="1.6"/>
	<circle cx="147" cy="69.4" r="1.6"/>
	<circle cx="142" cy="69.4" r="1.6"/>
	<circle cx="137" cy="69.4" r="1.6"/>
	<circle cx="132" cy="69.4" r="1.6"/>
	<circle cx="127" cy="69.4" r="1.6"/>
	<circle cx="122" cy="69.4" r="1.6"/>
	<circle cx="117" cy="69.4" r="1.6"/>
	<circle cx="112" cy="69.4" r="1.6"/>
	<circle cx="107" cy="69.4" r="1.6"/>
	<circle cx="102" cy="69.4" r="1.6"/>
	<circle cx="97" cy="69.4" r="1.6"/>
	<circle cx="92" cy="69.4" r="1.6"/>
	<circle cx="87" cy="69.4" r="1.6"/>
	<circle cx="82" cy="69.4" r="1.6"/>
	<circle cx="82" cy="94.4" r="1.6"/>
	<circle cx="77" cy="94.4" r="1.6"/>
	<circle cx="72" cy="94.4" r="1.6"/>
	<circle cx="67" cy="94.4" r="1.6"/>
	<circle cx="62" cy="94.4" r="1.6"/>
	<circle cx="77" cy="159.4" r="1.6"/>
	<circle cx="72" cy="159.4" r="1.6"/>
	<circle cx="67" cy="159.4" r="1.6"/>
	<circle cx="62" cy="159.4" r="1.6"/>
	<circle cx="77" cy="224.4" r="1.6"/>
	<circle cx="72" cy="224.4" r="1.6"/>
	<circle cx="67" cy="224.4" r="1.6"/>
	<circle cx="62" cy="224.4" r="1.6"/>
	<circle cx="82" cy="74.4" r="1.6"/>
	<circle cx="82" cy="79.4" r="1.6"/>
	<circle cx="82" cy="84.4" r="1.6"/>
	<circle cx="82" cy="89.4" r="1.6"/>
	<circle cx="82" cy="99.4" r="1.6"/>
	<circle cx="82" cy="104.4" r="1.6"/>
	<circle cx="82" cy="109.4" r="1.6"/>
	<circle cx="82" cy="114.4" r="1.6"/>
	<circle cx="82" cy="119.4" r="1.6"/>
	<circle cx="82" cy="124.4" r="1.6"/>
	<circle cx="82" cy="129.4" r="1.6"/>
	<circle cx="82" cy="134.4" r="1.6"/>
	<circle cx="82" cy="139.4" r="1.6"/>
	<circle cx="82" cy="144.4" r="1.6"/>
	<circle cx="82" cy="149.4" r="1.6"/>
	<circle cx="82" cy="154.4" r="1.6"/>
	<circle cx="82" cy="159.4" r="1.6"/>
	<circle cx="82" cy="164.4" r="1.6"/>
	<circle cx="82" cy="169.4" r="1.6"/>
	<circle cx="82" cy="174.4" r="1.6"/>
	<circle cx="82" cy="179.4" r="1.6"/>
	<circle cx="82" cy="184.4" r="1.6"/>
	<circle cx="82" cy="189.4" r="1.6"/>
	<circle cx="82" cy="194.4" r="1.6"/>
	<circle cx="82" cy="199.4" r="1.6"/>
	<circle cx="82" cy="204.4" r="1.6"/>
	<circle cx="82" cy="209.4" r="1.6"/>
	<circle cx="82" cy="214.4" r="1.6"/>
	<circle cx="82" cy="219.4" r="1.6"/>
	<circle cx="82" cy="224.4" r="1.6"/>
	<circle cx="184.7" cy="137.7" r="1.6"/>
	<circle cx="179.7" cy="137.7" r="1.6"/>
	<circle cx="174.7" cy="137.7" r="1.6"/>
	<circle cx="169.7" cy="137.7" r="1.6"/>
	<circle cx="164.7" cy="137.7" r="1.6"/>
	<circle cx="189.7" cy="142.7" r="1.6"/>
	<circle cx="189.7" cy="147.7" r="1.6"/>
	<circle cx="189.7" cy="152.7" r="1.6"/>
	<circle cx="189.7" cy="157.7" r="1.6"/>
	<circle cx="189.7" cy="162.7" r="1.6"/>
	<circle cx="189.7" cy="167.7" r="1.6"/>
	<circle cx="189.7" cy="172.7" r="1.6"/>
	<circle cx="189.7" cy="177.7" r="1.6"/>
	<circle cx="194.7" cy="177.7" r="1.6"/>
	<circle cx="199.7" cy="177.7" r="1.6"/>
	<circle cx="204.7" cy="177.7" r="1.6"/>
	<circle cx="209.7" cy="177.7" r="1.6"/>
	<circle cx="214.7" cy="177.7" r="1.6"/>
	<circle cx="184.7" cy="177.7" r="1.6"/>
	<circle cx="179.7" cy="177.7" r="1.6"/>
	<circle cx="174.7" cy="177.7" r="1.6"/>
	<circle cx="169.7" cy="177.7" r="1.6"/>
	<circle cx="164.7" cy="177.7" r="1.6"/>
	<circle cx="159.7" cy="177.7" r="1.6"/>
	<circle cx="154.7" cy="177.7" r="1.6"/>
	<circle cx="149.7" cy="177.7" r="1.6"/>
	<circle cx="189.7" cy="182.7" r="1.6"/>
	<circle cx="189.7" cy="187.7" r="1.6"/>
	<circle cx="189.7" cy="192.7" r="1.6"/>
	<circle cx="189.7" cy="197.7" r="1.6"/>
	<circle cx="189.7" cy="202.7" r="1.6"/>
	<circle cx="189.7" cy="207.7" r="1.6"/>
	<circle cx="189.7" cy="212.7" r="1.6"/>
	<circle cx="189.7" cy="217.7" r="1.6"/>
	<circle cx="189.7" cy="222.7" r="1.6"/>
	<circle cx="149.7" cy="182.7" r="1.6"/>
	<circle cx="224.7" cy="177.7" r="1.6"/>
	<circle cx="224.7" cy="182.7" r="1.6"/>
	<circle cx="264.7" cy="177.7" r="1.6"/>
	<circle cx="264.7" cy="182.7" r="1.6"/>
	<circle cx="219.7" cy="177.7" r="1.6"/>
	<circle cx="229.7" cy="177.7" r="1.6"/>
	<circle cx="234.7" cy="177.7" r="1.6"/>
	<circle cx="239.7" cy="177.7" r="1.6"/>
	<circle cx="244.7" cy="177.7" r="1.6"/>
	<circle cx="249.7" cy="177.7" r="1.6"/>
	<circle cx="254.7" cy="177.7" r="1.6"/>
	<circle cx="259.7" cy="177.7" r="1.6"/>
	<circle cx="264.7" cy="177.7" r="1.6"/>
	<g>
		<path d="M150.1,233c4.8,0,8.7,3.9,8.7,8.7s-3.9,8.7-8.7,8.7s-8.7-3.9-8.7-8.7S145.3,233,150.1,233 M150.1,231
			c-5.9,0-10.7,4.8-10.7,10.7s4.8,10.7,10.7,10.7c5.9,0,10.7-4.8,10.7-10.7S156,231,150.1,231L150.1,231z"/>
	</g>
	<g>
		<path d="M225.1,233c4.8,0,8.7,3.9,8.7,8.7s-3.9,8.7-8.7,8.7s-8.7-3.9-8.7-8.7S220.3,233,225.1,233 M225.1,231
			c-5.9,0-10.7,4.8-10.7,10.7s4.8,10.7,10.7,10.7c5.9,0,10.7-4.8,10.7-10.7S231,231,225.1,231L225.1,231z"/>
	</g>
	<g>
		<path d="M265.1,233c4.8,0,8.7,3.9,8.7,8.7s-3.9,8.7-8.7,8.7s-8.7-3.9-8.7-8.7S260.3,233,265.1,233 M265.1,231
			c-5.9,0-10.7,4.8-10.7,10.7s4.8,10.7,10.7,10.7c5.9,0,10.7-4.8,10.7-10.7S271,231,265.1,231L265.1,231z"/>
	</g>
	<circle cx="194.7" cy="222.7" r="1.6"/>
	<circle cx="199.7" cy="222.7" r="1.6"/>
	<circle cx="204.7" cy="222.7" r="1.6"/>
	<circle cx="209.7" cy="222.7" r="1.6"/>
	<circle cx="214.7" cy="222.7" r="1.6"/>
	<circle cx="184.7" cy="222.7" r="1.6"/>
	<circle cx="179.7" cy="222.7" r="1.6"/>
	<circle cx="174.7" cy="222.7" r="1.6"/>
	<circle cx="169.7" cy="222.7" r="1.6"/>
	<circle cx="164.7" cy="222.7" r="1.6"/>
	<circle cx="159.7" cy="222.7" r="1.6"/>
	<circle cx="154.7" cy="222.7" r="1.6"/>
	<circle cx="149.7" cy="222.7" r="1.6"/>
	<circle cx="149.7" cy="227.7" r="1.6"/>
	<circle cx="224.7" cy="222.7" r="1.6"/>
	<circle cx="224.7" cy="227.7" r="1.6"/>
	<circle cx="264.7" cy="222.7" r="1.6"/>
	<circle cx="264.7" cy="227.7" r="1.6"/>
	<circle cx="219.7" cy="222.7" r="1.6"/>
	<circle cx="229.7" cy="222.7" r="1.6"/>
	<circle cx="234.7" cy="222.7" r="1.6"/>
	<circle cx="239.7" cy="222.7" r="1.6"/>
	<circle cx="244.7" cy="222.7" r="1.6"/>
	<circle cx="249.7" cy="222.7" r="1.6"/>
	<circle cx="254.7" cy="222.7" r="1.6"/>
	<circle cx="259.7" cy="222.7" r="1.6"/>
	<circle cx="264.7" cy="222.7" r="1.6"/>
</g>
</svg>
